<svg width="119" height="20" viewBox="0 0 119 20" fill="none" xmlns="http://www.w3.org/2000/svg">
<g clip-path="url(#clip0_2239_9334)">
<path d="M16.4421 6.69921H13.5871C13.4742 6.08984 13.2711 5.54818 12.9777 5.08551C12.6843 4.62285 12.3119 4.22789 11.8831 3.90064C11.4543 3.57339 10.9691 3.33641 10.4274 3.16714C9.89704 2.99787 9.33281 2.91888 8.73473 2.91888C7.65141 2.91888 6.69223 3.18971 5.8346 3.73137C4.98826 4.27303 4.31119 5.07423 3.81467 6.12369C3.32943 7.17315 3.08117 8.4596 3.08117 9.97173C3.08117 11.4839 3.32943 12.7816 3.81467 13.831C4.31119 14.8805 4.97698 15.6704 5.8346 16.2121C6.69223 16.7537 7.65141 17.0133 8.72344 17.0133C9.31024 17.0133 9.87447 16.9343 10.4161 16.7763C10.9465 16.6183 11.4317 16.3701 11.8718 16.0541C12.3119 15.7381 12.673 15.3545 12.9777 14.8918C13.2824 14.4291 13.4855 13.8987 13.6097 13.3007H16.4646C16.3179 14.226 16.0133 15.0836 15.5844 15.851C15.1444 16.6183 14.5914 17.2841 13.9143 17.8484C13.2373 18.4126 12.4586 18.8414 11.5897 19.1461C10.7208 19.4508 9.76162 19.6087 8.73473 19.6087C7.10976 19.6087 5.66534 19.2251 4.40147 18.4464C3.1376 17.6791 2.13327 16.5732 1.39978 15.1288C0.666283 13.6843 0.305176 11.9691 0.305176 9.97173C0.305176 7.97436 0.666283 6.24783 1.39978 4.81469C2.13327 3.38155 3.1376 2.27566 4.40147 1.49702C5.66534 0.729675 7.10976 0.334717 8.73473 0.334717C9.72777 0.334717 10.6644 0.470128 11.522 0.763527C12.3909 1.04564 13.1583 1.46318 13.8466 2.00483C14.535 2.54649 15.1105 3.21228 15.5619 4.0022C16.0133 4.79212 16.3179 5.68359 16.4759 6.68792L16.4421 6.69921Z" fill="#121212"/>
<path d="M23.054 19.6652C22.1625 19.6652 21.3613 19.496 20.6391 19.1687C19.9169 18.8415 19.3527 18.3562 18.9352 17.713C18.5176 17.0811 18.3032 16.3024 18.3032 15.3771C18.3032 14.5872 18.4612 13.9327 18.7659 13.4136C19.0706 12.8945 19.4768 12.4995 19.9959 12.1949C20.515 11.8902 21.0905 11.6645 21.7337 11.5178C22.3769 11.3711 23.0314 11.2469 23.6972 11.168C24.5436 11.0664 25.2206 10.9874 25.751 10.931C26.2701 10.8633 26.6538 10.7617 26.8908 10.615C27.1277 10.4683 27.2519 10.2313 27.2519 9.90409V9.83638C27.2519 9.03517 27.0262 8.41453 26.5748 7.97443C26.1234 7.53433 25.4576 7.31993 24.5774 7.31993C23.6972 7.31993 22.9299 7.52305 22.3995 7.92929C21.8691 8.33554 21.508 8.78692 21.3049 9.28344L18.732 8.69664C19.0367 7.83902 19.4881 7.15065 20.0749 6.62028C20.6617 6.08991 21.3388 5.70624 22.1061 5.46926C22.8735 5.23228 23.6859 5.10815 24.5323 5.10815C25.0965 5.10815 25.6946 5.17586 26.3265 5.29999C26.9585 5.42412 27.5453 5.67238 28.0982 6.0222C28.6511 6.37202 29.1025 6.86854 29.4523 7.51176C29.8022 8.15498 29.9827 8.99004 29.9827 10.0169V19.3493H27.3083V15.4109C27.1277 15.7608 26.7553 18.1192 26.4055 18.4691C26.0557 18.8076 25.593 19.0897 25.0401 19.3154C24.4872 19.5411 23.8214 19.6539 23.0427 19.6539L23.054 19.6652ZM23.6408 17.4647C24.3969 17.4647 25.0514 17.318 25.5817 17.0134C26.1234 16.72 26.5297 16.325 26.8118 15.8398C27.0939 15.3545 27.2406 14.8354 27.2406 14.2825V12.4657C27.139 12.5672 26.9585 12.6575 26.6764 12.7365C26.3942 12.8155 26.0783 12.8945 25.7285 12.9509C25.3786 13.0073 25.0288 13.0638 24.6903 13.1089C24.3517 13.154 24.0696 13.1992 23.8439 13.2217C23.3136 13.2895 22.8283 13.4023 22.3882 13.5603C21.9481 13.7183 21.6096 13.944 21.35 14.2374C21.0905 14.5308 20.9664 14.9257 20.9664 15.4109C20.9664 16.088 21.2146 16.5958 21.7224 16.9456C22.2302 17.2955 22.8622 17.4647 23.6408 17.4647Z" fill="#121212"/>
<path d="M43.5258 8.73045L41.0432 9.17054C40.9416 8.85458 40.7723 8.54989 40.5579 8.26778C40.3322 7.98566 40.0388 7.74869 39.6552 7.56814C39.2715 7.38759 38.8088 7.2973 38.2333 7.2973C37.4547 7.2973 36.8115 7.46657 36.2924 7.81639C35.7733 8.15493 35.5137 8.60631 35.5137 9.14797C35.5137 9.62192 35.683 9.99431 36.0328 10.2877C36.3826 10.5698 36.9469 10.8068 37.7142 10.9874L39.9486 11.4952C41.2463 11.7998 42.2055 12.2512 42.8374 12.8832C43.4693 13.5151 43.7853 14.3163 43.7853 15.3093C43.7853 16.1557 43.5483 16.9005 43.0518 17.555C42.5666 18.2095 41.8895 18.7286 41.0319 19.1009C40.1742 19.4733 39.1699 19.6539 38.0302 19.6539C36.4503 19.6539 35.1752 19.3154 34.1709 18.6383C33.1778 17.9612 32.5685 17.002 32.3428 15.7607L34.9834 15.3545C35.1526 16.0428 35.4912 16.5619 35.999 16.9117C36.5068 17.2616 37.1838 17.4421 38.0076 17.4421C38.8991 17.4421 39.6213 17.2503 40.163 16.8779C40.7046 16.5055 40.9642 16.0428 40.9642 15.5012C40.9642 15.0611 40.8062 14.6887 40.4789 14.3953C40.1517 14.1019 39.6552 13.8762 38.9781 13.7182L36.597 13.1991C35.288 12.8944 34.3176 12.4205 33.6856 11.766C33.065 11.1115 32.749 10.2877 32.749 9.28339C32.749 8.44833 32.986 7.72612 33.4487 7.10547C33.9113 6.48482 34.5545 5.99958 35.367 5.64976C36.1795 5.29994 37.1161 5.11938 38.1769 5.11938C39.7003 5.11938 40.8965 5.44664 41.7654 6.10114C42.6343 6.75565 43.2211 7.63585 43.4919 8.73045H43.5258Z" fill="#121212"/>
<path d="M48.8979 11.0098V19.3603H46.1558V0.616699H48.8528V9.36223C49.18 8.60616 49.8571 6.23641 50.5342 5.78503C51.2112 5.34493 52.0914 5.11923 53.186 5.11923C54.1452 5.11923 54.9916 5.32236 55.7138 5.71732C56.436 6.11228 57.0002 6.71036 57.3952 7.489C57.7901 8.27892 57.9932 9.24939 57.9932 10.423V19.3603H55.2511V10.7502C55.2511 9.72334 54.9803 8.92213 54.4499 8.34662C53.9195 7.77111 53.186 7.489 52.2381 7.489C51.5949 7.489 51.0081 7.62441 50.5003 7.90652C49.9925 8.17735 49.5863 8.58359 49.3041 9.11397C49.022 9.64434 48.8641 10.2763 48.8641 11.0211L48.8979 11.0098Z" fill="#121212"/>
<path d="M61.0283 19.3493V5.28876H63.6576V9.32863C63.951 8.55 64.6055 6.19152 65.2713 5.76271C65.9371 5.32261 66.7383 5.10821 67.6636 5.10821C68.589 5.10821 69.3902 5.32261 70.0334 5.76271C70.1914 5.87555 70.3381 5.9884 70.4848 6.12381C71.128 6.73318 71.4552 7.6021 71.4552 8.48229V9.32863C71.884 8.58385 72.4708 6.22538 73.2043 5.774C73.9378 5.32261 74.8067 5.09692 75.8224 5.09692C77.0975 5.09692 78.1357 5.49188 78.9482 6.29308C79.7607 7.09429 80.1669 8.30174 80.1669 9.90415V19.338H77.4248V10.1637C77.4248 9.21578 77.1652 8.52742 76.6461 8.09861C76.127 7.6698 75.5064 7.45539 74.7842 7.45539C73.8927 7.45539 73.2043 7.72623 72.7078 8.27917C72.2113 8.82083 71.963 9.52047 71.963 10.3781V19.338H69.2322V9.99442C69.2322 9.22707 68.9952 8.6177 68.5213 8.15504C68.0473 7.69237 67.4267 7.45539 66.6593 7.45539C66.1402 7.45539 65.6663 7.59081 65.2262 7.86164C64.7861 8.13247 64.4363 8.50486 64.1767 8.99009C63.9172 9.47533 63.7818 10.0283 63.7818 10.6602V19.3268H61.0396L61.0283 19.3493Z" fill="#121212"/>
<path d="M89.2157 19.6427C87.8277 19.6427 86.6428 19.3493 85.6385 18.7512C84.6454 18.1531 83.8668 17.318 83.3364 16.2347C82.806 15.1514 82.5239 13.8762 82.5239 12.4205C82.5239 10.9648 82.7947 9.71225 83.3364 8.60636C83.8781 7.51176 84.6341 6.65414 85.6046 6.03349C86.5751 5.41284 87.7148 5.10815 89.0238 5.10815C89.8137 5.10815 90.5811 5.24357 91.3259 5.50311C92.0707 5.76266 92.7364 6.18018 93.3345 6.74441C93.9326 7.30864 94.3953 8.03085 94.7338 8.92233C95.0723 9.81381 95.2529 10.8971 95.2529 12.1723V13.1428H84.0699V11.089H92.5672C92.5672 10.3668 92.4205 9.72354 92.1271 9.17059C91.8337 8.60636 91.4274 8.16627 90.8971 7.8503C90.3667 7.52305 89.746 7.36507 89.0464 7.36507C88.279 7.36507 87.602 7.5569 87.0377 7.92929C86.4735 8.30168 86.0334 8.7982 85.7174 9.39628C85.4015 9.99436 85.2548 10.6489 85.2548 11.3485V12.9509C85.2548 13.8875 85.424 14.6887 85.7513 15.3432C86.0785 15.9977 86.5525 16.5055 87.1506 16.8441C87.7487 17.1826 88.4483 17.3632 89.2495 17.3632C89.7686 17.3632 90.2426 17.2842 90.6714 17.1375C91.1002 16.9908 91.4726 16.7651 91.7772 16.4604C92.0932 16.167 92.3302 15.7946 92.4882 15.3545L95.0836 15.8172C94.8805 16.5845 94.5081 17.2503 93.9665 17.8146C93.4361 18.3901 92.759 18.8302 91.9578 19.1461C91.1566 19.4621 90.2425 19.6201 89.2157 19.6201V19.6427Z" fill="#121212"/>
<path d="M97.6573 19.3492V5.28862H100.298V9.32849C100.557 8.57243 101.156 6.16881 101.799 5.72872C102.442 5.28862 103.187 5.07422 104.011 5.07422C104.18 5.07422 104.383 5.07421 104.62 5.09678C104.857 5.10807 105.037 5.11935 105.173 5.14192V7.75994C105.06 7.72609 104.868 7.69223 104.586 7.65837C104.304 7.61324 104.022 7.60196 103.74 7.60196C103.096 7.60196 102.521 7.73737 102.013 8.0082C101.505 8.27903 101.11 8.65142 100.817 9.13666C100.524 9.61061 100.377 10.1635 100.377 10.7729V19.3605H97.6348L97.6573 19.3492Z" fill="#121212"/>
<path d="M112.464 19.6427C111.076 19.6427 109.891 19.3493 108.887 18.7512C107.893 18.1531 107.115 17.318 106.584 16.2347C106.054 15.1514 105.772 13.8762 105.772 12.4205C105.772 10.9648 106.043 9.71225 106.584 8.60636C107.126 7.51176 107.882 6.65414 108.853 6.03349C109.823 5.41284 110.963 5.10815 112.272 5.10815C113.062 5.10815 113.829 5.24357 114.574 5.50311C115.319 5.76266 115.984 6.18018 116.583 6.74441C117.181 7.30864 117.643 8.03085 117.982 8.92233C118.32 9.81381 118.49 10.8971 118.49 12.1723V13.1428H107.318V11.089H115.815C115.815 10.3668 115.669 9.72354 115.375 9.17059C115.082 8.60636 114.675 8.16627 114.145 7.8503C113.615 7.52305 112.994 7.36507 112.294 7.36507C111.527 7.36507 110.861 7.5569 110.286 7.92929C109.71 8.30168 109.27 8.7982 108.966 9.39628C108.661 9.99436 108.503 10.6489 108.503 11.3485V12.9509C108.503 13.8875 108.672 14.6887 108.999 15.3432C109.327 15.9977 109.801 16.5055 110.399 16.8441C110.997 17.1939 111.696 17.3632 112.498 17.3632C113.017 17.3632 113.491 17.2842 113.919 17.1375C114.348 16.9908 114.721 16.7651 115.025 16.4604C115.341 16.167 115.578 15.7946 115.736 15.3545L118.32 15.8172C118.117 16.5845 117.745 17.2503 117.214 17.8146C116.684 18.3901 116.007 18.8302 115.206 19.1461C114.405 19.4621 113.491 19.6201 112.464 19.6201V19.6427Z" fill="#121212"/>
</g>
<defs>
<clipPath id="clip0_2239_9334">
<rect width="118.184" height="19.3304" fill="white" transform="translate(0.305176 0.334717)"/>
</clipPath>
</defs>
</svg>
